# xmcd
#
# Track frame offsets: 
#        150
#        20174
#        32226
#        52970
#        73675
#        88301
#        95935
#        107985
#        122126
#        146315
#        160473
#        185260
#        204227
#
# Disc length: 2928 seconds
#
# Revision: 0
# Processed by: cddbd v1.5.2PL0 Copyright (c) Steve Scherf et al.
# Submitted via: ExactAudioCopy v0.99pb5
#
DISCID=bf0b6e0d
DTITLE=John Lennon  - Home Tapes (2010) - Signature Box
DYEAR=1900
DGENRE=
TTITLE0=Mother
TTITLE1=Love
TTITLE2=God
TTITLE3=I Found Out
TTITLE4=Nobody Told Me
TTITLE5=Honey Don't
TTITLE6=One Of The Boys
TTITLE7=India, India
TTITLE8=Serve Yourself
TTITLE9=Isolation
TTITLE10=Remember
TTITLE11=Beautiful Boy (Darling Boy)
TTITLE12=I Don't Wanna Be A Soldier Mama I Don't Wanna Die
EXTD=
EXTT0=
EXTT1=
EXTT2=
EXTT3=
EXTT4=
EXTT5=
EXTT6=
EXTT7=
EXTT8=
EXTT9=
EXTT10=
EXTT11=
EXTT12=
PLAYORDER=
